<svg id="Слой_1" data-name="Слой 1" xmlns="http://www.w3.org/2000/svg" viewBox="0 0 51 22"><defs><style>.cls-1{fill:#8cc63f;}.cls-2{font-size:6.5px;}.cls-2,.cls-3{fill:#fff;font-family:AdobeSongStd-Light-GBpc-EUC-H, Adobe Song Std;}.cls-3{font-size:6.5px;}</style></defs><path class="cls-1" d="M55.34,14.33c-2,3-6,3.67-9.3,2.57A7.57,7.57,0,0,1,41.37,12c.69,2.92,3.5,4.69,6.55,5.34a8.17,8.17,0,0,0,8-3.87,6.57,6.57,0,0,0-6.05-9.61,1.89,1.89,0,0,1,.94-.45c-.23,0-.94.23-.7.23,4.46.86,8,4.88,6.05,9.16a7.63,7.63,0,0,1-7.57,4.54c-3.76-.2-6.33-2.87-7.72-6,.66,5.61,7.47,8,12.66,6.2a9.2,9.2,0,0,1-10.11-.6c-5.86-4.45-3.91-13,2-16.63-4-.42-7.07,2.3-9,5.23A10.57,10.57,0,0,0,39.9,19.64C46,23.18,54.71,23.12,59,16.81c3.1-4.74,2-11.46-3.19-14.12A10.17,10.17,0,0,0,45.68,3a7.68,7.68,0,0,0-2.9,9.67,7.35,7.35,0,0,1,1-7.86A9.47,9.47,0,0,1,57,3.58a9.76,9.76,0,0,1,3.7,8.73C61.66,6,55.12-.22,48.28,1.85a8.48,8.48,0,0,0-6.17,6.77,7.25,7.25,0,0,0,6.06,7.81A7.51,7.51,0,0,1,44,14.22c-3-3.57-2.29-8.51,1.73-11.23A9.72,9.72,0,0,1,59.31,6c3.95,6.48-.82,14.82-8.36,15.77-4.48.48-8.94-.38-12.45-3.28a10.66,10.66,0,0,1-3.22-9.4C36,4.63,40.05-.12,45.23.52a12.13,12.13,0,0,0-5.48,9,9.21,9.21,0,0,0,2.54,6.26c3,3.12,8.2,4.21,11.76,1.27A9.48,9.48,0,0,1,41.6,13.34c.47,0,.47.22.7.44-.47-.22-.46-.89-.93-1.11,1.38,4.7,7.71,6.9,12.2,4.62-.23.23-.47.68-.94.68.47-.22.71-.45,1.18-.68-4.72,2.06-10.6.3-12.44-4.4a9.08,9.08,0,0,0,6.32,4.45A7.82,7.82,0,0,0,56.19,13c1.92-4.28-1.58-8.74-6-9.38a6.67,6.67,0,0,1,6.34,2,7.16,7.16,0,0,1,2.06,6.72A8.08,8.08,0,0,0,56,5.16a6.27,6.27,0,0,0-5.87-1.53c3.05.87,6.1,2.42,6.54,5.79a7.33,7.33,0,0,1-6.18,7.9c-4,.7-7.28-1.75-9.37-4.87,1.61,4.92,7.71,7.12,12.43,4.84-4.73,3.4-11.3.53-13.14-4.39-1.85-4.7.77-9.66,4.8-12.38-2.82-.88-5.43,1.16-7.32,3a10.83,10.83,0,0,0-2,11.46c3.24,6.71,12.41,8.67,19,5.48A10.14,10.14,0,0,0,58.84,5.36a10.67,10.67,0,0,0-6.56-3.77c-4.7-.64-9.43,2.31-10.17,7a7.22,7.22,0,0,0,5.82,7.82A7.22,7.22,0,0,1,43.78,4.8a9.64,9.64,0,0,1,16.89,7.51,11.46,11.46,0,0,1-8.54,9.26c-6.37,1.17-13.65-.8-16.19-6.62a10.85,10.85,0,0,1,.3-9C37.91,3,41.23-.12,45,.3c-4.73,3.85-7.14,10.6-2.7,15.5,2.8,3.13,8.2,4.21,11.52,1.27a9.21,9.21,0,0,1-7.3.72c-2.82-1.1-5.39-3.55-5.6-6.69,1.38,4,5.6,7.14,10.31,6,3.07-.92,5.2-3.18,5.46-6.1.5-3.82-3-6.94-7-7.13,3.31-1.6,6.82.84,8.21,3.53a8,8,0,0,1-1,8.76,9.45,9.45,0,0,1-7.33,3.42A9,9,0,0,0,55,18.18a9.29,9.29,0,0,1-8,1.18c5.17,1.09,10.84-2.1,11.59-7.49.5-4.27-3.23-8.95-7.94-8.25,3.52,1.1,6.79,3.77,6.06,7.82a7.8,7.8,0,0,1-6.17,5.88c-3.77.47-7.75-1.52-9.14-4.88a8.32,8.32,0,0,0,8.2,4.88c4.48-.25,8-3.87,7.13-8.35C56,6.05,53.43,4.73,50.85,3.62c4.95-.48,8.44,4.21,7.7,8.7-1,5.17-6.89,8.35-11.82,6.82,4,2,9-.51,11.1-3.9-1.91,2.93-5.69,5.21-9.45,4.34,3.76.19,7.78-1.63,9.45-5a8.38,8.38,0,0,0,.52-6.29c-1.15-3.13-5.13-6-8.68-4.42a6.87,6.87,0,0,1,7,7.13,7,7,0,0,1-5,5.87c-4.72,1.6-10.11-1.5-10.77-6.43-.29,6.06,7.69,9.59,12.89,6.86-4.73,3.4-11.54.53-13.38-4.62-1.85-4.92,1.48-9.21,4.8-12.6-3.77,0-6.84,2.52-8.75,5.45-3.58,6.09.13,14.14,7.18,15.66a11.27,11.27,0,0,1-8.41-8.24C33.88,6.89,38.64.57,45,.07c-2.61,3.16-5.93,6.33-5,11a9.23,9.23,0,0,0,3.72,6c3,2,7.28,2.42,10.12.15-4.72,2.06-10.83.3-12.44-4.62,2.09,4.25,8.19,6.45,12.45,3.28a6.79,6.79,0,0,0,2.86-4.51c.5-4-2.54-6.72-6.06-7.82a9.34,9.34,0,0,1,4.23.65c-1.65-.22-3.52-1.77-5.18-.41,4.24,0,7.74,3.53,7,7.58-.74,3.82-4.52,6.31-8.76,5.89a8.17,8.17,0,0,1-7-6.45v.67A8.1,8.1,0,0,0,43.7,16c-.94-.44-1.17-1.34-1.87-2,2.32,4,7.73,5.11,12,3.28-4.5,3.18-11.07.75-13.15-3.72A10.2,10.2,0,0,1,42.38,3c-4,4.74-3.15,12.59,2.95,15,2.58.88,6.11,1.3,8.24-.74-5,2.28-11.76-.36-12.43-5.74,1.15,4.48,6.54,7.13,11,5.3a8.33,8.33,0,0,0,4.28-4.51c1.44-4.28-2.3-8.07-6.53-8.71,2.36-.47,4.23.42,6.11,1.3-1.88-.66-3.75-2.44-5.88-1.08,4.71.19,8,5.11,6,9.16A8.72,8.72,0,0,1,50,17.32a8.45,8.45,0,0,1-8.67-4.88c1.14,5.16,7.71,7.13,12.44,4.85-4.73,3.18-11.3.76-13.39-4.17-1.84-4.92.78-9.88,5-12.83-2.82-.65-5.42,1.39-7.32,3A10.54,10.54,0,0,0,35.71,14.5a10.68,10.68,0,0,0,4.43,5.13c5.16,2.89,11.74,3.51,16.48-.34,3.55-2.94,5.23-7.67,3.38-11.92a9.77,9.77,0,0,0-8.42-6,9.46,9.46,0,0,0-9,5.45,7.31,7.31,0,0,0,4.4,9.4,7,7,0,0,1-4.88-7.6,8.82,8.82,0,0,1,5.46-6.55A10.06,10.06,0,0,1,57.21,3.8a9.59,9.59,0,0,1,2.26,12.1c-2.63,5-8.76,6.8-14.17,5.49a12.9,12.9,0,0,0,12.26-2.78A11,11,0,0,0,60.23,8a9.69,9.69,0,0,0-7.71-6.45C48.28,1,44,3,42.59,6.82a7.22,7.22,0,0,0,3,8.74c-4.21-2.44-4.41-8.28-1.08-11.67,2.13-2,5.19-2.5,8-2.3a9.73,9.73,0,0,1,7.94,7.13,10.67,10.67,0,0,1-5.74,11.93c-4.48,2.05-9.66,1.42-14.11-.79A10.27,10.27,0,0,1,35.28,9.12c.74-4.72,4.77-9,9.95-9C41,3.69,38.1,8.88,40.89,14c2.09,3.8,8.19,6.45,12.21,3.5-5,2.28-11.76-1-12.19-6.42a8.91,8.91,0,0,0,8.9,6.22c3.53-.25,7.08-3.42,6.88-7s-3.49-6.26-7-6.68a7.58,7.58,0,0,1,8.44,4.2,8.31,8.31,0,0,1-1.24,8.32,11.1,11.1,0,0,1-9,3.43c4,.19,8-1.63,9.92-5C55.68,18.4,51,20,46.73,19.36a10.14,10.14,0,0,0,11.34-5.24,8.49,8.49,0,0,0-.42-7.18c-1.63-2.23-4.9-4.68-8-3.08,4.48,0,8.21,4.43,6.53,8.7a7.65,7.65,0,0,1-8.28,4.77c-3.52-.64-5.86-3.32-7.24-6.45.9,5.38,7.23,8.92,12.66,6.64-5.21,3.4-12-.36-13.37-6C38.82,6.85,42.15,3,45.47.07a10.49,10.49,0,0,0-7.8,3.87,11.06,11.06,0,0,0-1.73,11c2.31,5.37,8.89,7.34,14.54,6.85a11.78,11.78,0,0,0,9-5.9A9.84,9.84,0,0,0,58.38,4.69a10.5,10.5,0,0,0-7.75-3.31c-4.94,0-9.92,5-8.31,9.93-.69-2,.5-3.81.75-5.61-.72,2.25-1.45,4.5-.52,6.73-2.32-5.37,2.67-11,8.32-11A10.1,10.1,0,0,1,60.23,8a10.42,10.42,0,0,1-3.85,11.48c-7.33,5-18.37,2.15-20.9-5.91C33.64,7.56,38.4.79,45,.07c-4.26,4.07-7.61,10.61-2.94,15.74,2.8,2.89,8.21,4.2,11.76,1.48-4.72,2.06-11.3.31-12.44-4.85a9,9,0,0,0,8.91,4.88,7.42,7.42,0,0,0,5.44-3.41c2.86-4.51-.64-9.64-5.57-10.28a7.06,7.06,0,0,1,7.73,4,6.94,6.94,0,0,0-7.73-4C53.2,4.28,56,6.05,56.7,9a6.94,6.94,0,0,1-2.64,6.75c-4.5,3.62-10.84,1.2-12.92-3.5,1.37,4.93,7.94,7.35,12.67,5.07-4.26,3.17-11.07.75-13.15-3.72C38.34,8.65,41.2,3.24,45.46.29c-.7-.66-1.41,0-2.11,0,.7.22,1.18-.46,1.88-.24C39.79,4.15,37.37,12,43,16.7a9.19,9.19,0,0,0,11.06.37c-5,2.95-12.48-.14-13.14-6a.81.81,0,0,0,.23.67c0-.22-.23-.67-.23-.89.43,5.83,7.47,8.7,12.66,6.64a9.09,9.09,0,0,1-11.75-2.16C37.62,10.23,40.73,3.92,45.23.07a10.44,10.44,0,0,0-7.09,3.19,10.82,10.82,0,0,0-1.5,12.81,9.84,9.84,0,0,1,.08-11c1.9-2.71,5-5.2,8.51-4.77-4.74,3.62-7.61,9.7-3.64,14.84,2.56,3.34,8.43,5.1,12,2.15-4.72,2.28-11.06.31-12.2-4.85h0c0-.22-.23-.44-.23-.67.47.45.46,1.12.93,1.57-.47-.45-.23-.9-.7-1.35,1.38,4.48,7.72,6.91,12,4.21A17.43,17.43,0,0,0,55.34,14.33Z" transform="translate(-35 0)"/><text class="cls-2" transform="translate(26.51 11.91) scale(1.03 1)">STUDIO</text><text class="cls-3" transform="translate(9.54 11.91) scale(1.01 1)">JED </text></svg>