<?xml version="1.0" encoding="UTF-8"?>
<svg id="_Слой_1" data-name="Слой 1" xmlns="http://www.w3.org/2000/svg" viewBox="0 0 318.09 318.12">
  <defs>
    <style>
      .cls-1 {
        fill: #7bae37;
      }

      .cls-1, .cls-2 {
        stroke-width: 0px;
      }

      .cls-2 {
        fill: #3e571c;
      }

      .cls-3 {
        fill: #fff;
        font-family: Humanist777BT-BlackItalicB, 'Humanist 777 Black BT';
        font-size: 74px;
        font-style: italic;
        font-weight: 800;
      }
    </style>
  </defs>
  <path class="cls-1" d="M317.02,177.58c-9.16,79.12-76.4,140.54-157.98,140.54C71.2,318.12,0,246.92,0,159.08,0,77.5,61.42,10.27,140.54,1.11c-.06.02-.12.05-.18.08C77.35,17.01,30.68,74.05,30.68,141.97c0,80.16,64.99,145.15,145.15,145.15,67.02,0,123.44-45.43,140.13-107.18.36-.78.7-1.56,1.05-2.36Z"/>
  <path class="cls-1" d="M318.09,114.71c0,58.85-44.3,107.34-101.36,113.95.21-.09.42-.18.63-.28.07-.03.16-.07.23-.11h0c48.23-10.5,84.35-53.44,84.35-104.82,0-59.25-48.03-107.28-107.28-107.28-51.35,0-94.28,36.09-104.8,84.28-.14.3-.28.61-.41.91C96.08,44.3,144.55,0,203.39,0c63.34,0,114.7,51.36,114.7,114.71Z"/>
  <text class="cls-3" transform="translate(109.35 169.02)"><tspan x="0" y="0">JED</tspan></text>
  <path class="cls-2" d="M315.97,179.94c-16.69,61.75-73.11,107.18-140.13,107.18-80.16,0-145.15-64.99-145.15-145.15C30.68,74.05,77.35,17.01,140.36,1.19,92.86,21.84,59.64,69.19,59.64,124.29c0,74.11,60.08,134.2,134.2,134.2,54.25,0,100.99-32.2,122.13-78.54Z"/>
  <path class="cls-2" d="M301.95,123.46c0,51.38-36.12,94.32-84.35,104.82,33.87-15.06,57.48-49.01,57.48-88.47,0-53.46-43.34-96.8-96.78-96.8-38.2,0-71.24,22.14-86.96,54.29-.52,1.05-1.01,2.1-1.47,3.16,10.52-48.19,53.45-84.28,104.8-84.28,59.25,0,107.28,48.03,107.28,107.28Z"/>
</svg>