<svg id="Слой_1" data-name="Слой 1" xmlns="http://www.w3.org/2000/svg" viewBox="0 0 120.11 58"><defs><style>.cls-1{fill:#8cc63f;}.cls-2{font-size:17.13px;}.cls-2,.cls-3{fill:#fff;font-family:AdobeSongStd-Light-GBpc-EUC-H, Adobe Song Std;}.cls-3{font-size:17.13px;}</style></defs><path class="cls-1" d="M47.9,38.07C43.19,45.88,33.75,47.73,26,44.83A19.1,19.1,0,0,1,15,31.9C16.62,39.58,23.24,44.26,30.44,46c7.75,1.12,15-3.08,18.91-10.21,5.62-11.29-2-25.43-14.24-25.33a4.12,4.12,0,0,1,2.23-1.2c-.56,0-2.23.61-1.67.6C46.18,12.13,54.43,22.71,49.92,34A17.82,17.82,0,0,1,32.1,46c-8.87-.52-14.92-7.58-18.19-15.83,1.57,14.78,17.6,21.16,29.83,16.33a19.81,19.81,0,0,1-23.83-1.59C6.13,33.16,10.72,10.64,24.64,1.06,15.23,0,8,7.11,3.49,14.84-2.7,27.31,0,43.86,11.55,52.05c14.35,9.35,34.86,9.19,45-7.46C63.79,32.1,61.14,14.37,49,7.37c-7.73-4.08-16.05-4.6-23.84.78a21.66,21.66,0,0,0-6.83,25.5c-2.72-7.08-2.11-14.77,2.36-20.73A20.72,20.72,0,0,1,51.74,9.71c6.62,5.87,9.33,14.13,8.72,23,2.33-16.58-13.08-33-29.19-27.57C23.49,7.57,17.9,14.72,16.73,23c-.61,9.48,4.86,18.9,14.28,20.6-3.88-1.15-7.19-2.31-9.94-5.84A20.92,20.92,0,0,1,25.15,8.15c11.14-8.37,25.52-3.75,32.09,8,9.31,17.08-1.92,39.07-19.68,41.58-10.54,1.27-21-1-29.32-8.64C2.19,42.66-.52,33.8.65,24.33,2.39,12.48,11.9,0,24.08,1.65A32.86,32.86,0,0,0,11.17,25.42a26,26,0,0,0,6,16.52C24.31,50.17,36.49,53,44.85,45.27c-10.57,6-23.84,1.38-29.31-9.82,1.11,0,1.11.58,1.66,1.17-1.11-.58-1.1-2.36-2.2-2.94,3.24,12.4,18.17,18.2,28.74,12.19-.56.6-1.12,1.79-2.23,1.8,1.11-.6,1.67-1.2,2.78-1.8-11.12,5.41-24.94.79-29.3-11.6C18.28,40.16,23.24,44.85,29.88,46c8.3,1.71,16.65-3.09,20-11.4,4.51-11.28-3.72-23-14.24-24.74C41.22,8,46.75,10.94,50.6,15.05a20.37,20.37,0,0,1,4.87,17.71c.6-7.1-1-14.19-6-18.89-3.86-3.51-8.83-5.84-13.83-4C42.86,12.15,50,16.24,51.09,25.1c1,9.46-5.12,19-14.56,20.83S19.38,41.34,14.45,33.09c3.79,13,18.16,18.79,29.29,12.78-11.15,9-26.62,1.4-31-11.58C8.43,21.9,14.61,8.83,24.08,1.65,17.45-.66,11.31,4.71,6.85,9.48A31.24,31.24,0,0,0,2.21,39.7C9.85,57.39,31.43,62.54,47,54.13,60.36,46.92,64.92,28,56.15,14.41A24.77,24.77,0,0,0,40.69,4.48C29.62,2.79,18.48,10.57,16.73,23a18.88,18.88,0,0,0,13.72,20.6c-12.17-2.86-18.16-19.38-9.77-30.69C28,2.81,40.71,1.52,50.09,8A26.3,26.3,0,0,1,60.46,32.72C58.72,44,51.44,54.1,40.34,57.14,25.35,60.22,8.2,55,2.21,39.7-.51,32-.45,23.15,2.92,16,6.86,8.3,14.67,0,23.53,1.07,12.38,11.21,6.72,29,17.16,41.94,23.76,50.18,36.49,53,44.3,45.28c-5,3.59-11.67,3.64-17.2,1.91-6.63-2.91-12.68-9.37-13.18-17.65C17.17,40.17,27.09,48.37,38.2,45.33A18.31,18.31,0,0,0,51.06,29.25C52.23,19.18,44,11,34.56,10.44c7.78-4.2,16.06,2.24,19.33,9.32,3.28,7.66,2.66,16.54-2.37,23.09a21.38,21.38,0,0,1-17.24,9c5,.55,8.87-1.26,12.77-3.66-5.57,4.19-12.79,5.43-18.87,3.11,12.18,2.86,25.54-5.53,27.3-19.74C56.66,20.33,47.88,8,36.78,9.83c8.29,2.9,16,9.94,14.27,20.6-1.72,7.71-7.3,14.26-14.52,15.5A20.3,20.3,0,0,1,15,33.09C18.27,41.34,26,46.61,34.32,46a18.33,18.33,0,0,0,16.77-22c-1.61-7.68-7.68-11.18-13.76-14.09C49,8.55,57.21,20.91,55.47,32.76c-2.31,13.63-16.22,22-27.84,18C37,56,48.7,49.38,53.75,40.47,49.27,48.2,40.36,54.18,31.5,51.89c8.87.52,18.33-4.29,22.27-13.2A24.6,24.6,0,0,0,55,22.11C52.27,13.85,42.9,6.24,34.56,10.44c9.42-.07,17.12,8.74,16.5,18.81-.6,7.1-5.64,13.65-11.75,15.48-11.11,4.23-23.8-4-25.38-17-.66,16,18.12,25.3,30.36,18.1-11.14,9-27.17,1.4-31.51-12.17C8.43,20.71,16.27,9.41,24.09.47,15.22.54,8,7.11,3.49,14.84c-8.43,16,.3,37.27,16.9,41.28A28.28,28.28,0,0,1,.58,34.39c-3.22-15.95,8-32.61,23-33.92-6.16,8.34-14,16.68-11.84,29.09,1.07,6.5,3.8,11.81,8.76,15.91,7.17,5.27,17.14,6.37,23.83.4-11.12,5.41-25.5.8-29.29-12.19,4.91,11.2,19.28,17,29.32,8.64,3.34-3,6.14-6.56,6.73-11.89,1.18-10.66-6-17.7-14.27-20.6,3.33-.61,6.65.54,10,1.7-3.87-.56-8.28-4.67-12.18-1.09,10-.08,18.22,9.33,16.49,20A18.61,18.61,0,0,1,30.44,46c-8.31-1.12-14.91-8.16-16.52-17v1.78a22.09,22.09,0,0,0,6.57,11.78c-2.21-1.17-2.75-3.53-4.4-5.29,5.47,10.61,18.2,13.46,28.21,8.65-10.58,8.37-26.06,2-31-9.81C9.5,26.62,11.79,16,17.39,8.22,7.88,20.72,10,41.41,24.33,47.8c6.08,2.32,14.38,3.44,19.41-1.93-11.68,6-27.71-1-29.28-15.15,2.7,11.82,15.4,18.81,26,14A21.06,21.06,0,0,0,50.48,32.8c3.4-11.27-5.4-21.26-15.37-22.95,5.56-1.23,10,1.1,14.39,3.43-4.42-1.74-8.82-6.43-13.84-2.84,11.09.5,18.76,13.45,14.25,24.14A20.75,20.75,0,0,1,35.42,45.94C26.55,47.19,18.27,41.34,15,33.09c2.68,13.58,18.17,18.79,29.29,12.78-11.14,8.37-26.62,2-31.52-11C8.43,21.9,14.61,8.83,24.64,1.06,18-.67,11.87,4.71,7.41,8.89c-7.26,7.75-9,19.6-5.75,29.63A27.74,27.74,0,0,0,12.1,52c12.15,7.6,27.66,9.25,38.81-.9,8.37-7.76,12.33-20.22,8-31.42C55.62,10.87,47.9,4.42,39,3.9S21.26,9.37,17.87,18.27C14.48,28.36,19.39,39.56,28.24,43,20.5,40.14,15.57,31.9,16.73,23A22.75,22.75,0,0,1,29.6,5.75c7.78-3,16.08-1.31,22.69,4.55,8.82,8.22,10.39,21.22,5.33,31.91C51.44,55.28,37,60.13,24.27,56.68c10,2.88,21.05,1,28.87-7.33,6.15-7.74,9-17.83,6.28-27.86-2.71-8.86-9.32-15.31-18.17-17a20.75,20.75,0,0,0-23.38,13.8c-2.82,8.31-.12,18.34,7.05,23C15,34.86,14.54,19.48,22.36,10.54c5-5.36,12.24-6.6,18.89-6.07C50.66,6.17,57.81,13.81,60,23.26,62.65,35.66,57,48.73,46.45,54.73c-10.57,5.41-22.75,3.73-33.24-2.1A28.15,28.15,0,0,1,.65,24.33C2.4,11.89,11.9.57,24.09.47,14.05,10,7.31,23.68,13.87,37.24c4.92,10,19.28,17,28.76,9.23-11.68,6-27.7-2.73-28.71-16.93,2.71,9.45,11,17.08,20.95,16.4,8.32-.65,16.69-9,16.2-18.47S42.87,11,34.56,9.85C42.89,8,51.17,12.68,54.44,20.94a23.94,23.94,0,0,1-2.92,21.91c-5,6.55-13.37,9.58-21.12,9A24.61,24.61,0,0,0,53.77,38.69C48.71,48.79,37.59,53,27.63,51.33c10.51,2.87,22.19-3.14,26.7-13.83a24.79,24.79,0,0,0-1-18.92c-3.84-5.89-11.56-12.34-18.79-8.14,10.53-.08,19.32,11.68,15.36,23A17.87,17.87,0,0,1,30.44,46c-8.31-1.71-13.8-8.76-17.07-17,2.12,14.18,17,23.53,29.81,17.51-12.25,9-28.26-1-31.49-15.72C9,18.34,16.83,8.22,24.65.46,17.44.52,10.76,4.72,6.29,10.67.13,19-1,30.26,2.21,39.7,7.66,53.85,23.14,59.06,36.45,57.77A27.88,27.88,0,0,0,57.62,42.21c5.05-9.51,3.47-21.33-2.57-29.56A23.47,23.47,0,0,0,36.82,3.92C25.18,4,13.45,17.12,17.24,30.11,15.61,24.8,18.42,20,19,15.3c-1.7,5.93-3.4,11.86-1.23,17.76-5.44-14.15,6.3-29,19.6-29.15A24.15,24.15,0,0,1,59.42,21.49c2.7,11.22-.15,23.08-9.07,30.25C33.08,64.89,7.08,57.41,1.12,36.16-3.2,20.21,8,2.37,23.54.47c-10,10.74-17.93,28-6.93,41.48,6.6,7.64,19.32,11.09,27.68,3.92-11.12,5.41-26.61.8-29.29-12.78,3.83,8.25,12.1,14.1,21,12.85,5.55-.64,10-4.23,12.81-9C55.52,25.07,47.3,11.53,35.67,9.84,43.44,8,51.17,13.27,53.89,20.35,51.17,12.68,42.89,8,35.67,9.84c7.19,1.72,13.81,6.4,15.42,14.08a19.43,19.43,0,0,1-6.21,17.8c-10.6,9.55-25.52,3.17-30.43-9.22,3.24,13,18.72,19.38,29.84,13.37-10,8.36-26.06,2-31-9.81-5.46-13,1.29-27.23,11.32-35-1.65-1.77-3.32,0-5,0,1.66.58,2.78-1.21,4.44-.63C11.27,11.22,5.59,32,18.81,44.3c7.16,6.45,18.24,7.54,26,1-11.69,7.79-29.37-.35-30.93-15.73a2.23,2.23,0,0,0,.54,1.78c0-.6-.54-1.78-.54-2.37,1,15.38,17.58,22.94,29.82,17.52-9.47,6.58-21.09,3.12-27.68-5.7-9.89-13.53-2.57-30.16,8-40.3C17.44.52,11.87,4.12,7.41,8.89-.41,17.83-1.62,32,3.85,42.64c-4.93-8.83-5.41-20.07.2-29C8.53,6.51,15.78-.06,24.09,1.06,12.94,10.62,6.18,26.65,15.51,40.18c6,8.83,19.86,13.45,28.23,5.69-11.13,6-26.06.8-28.74-12.78h0c0-.6-.54-1.18-.54-1.77,1.1,1.17,1.09,3,2.19,4.12-1.1-1.17-.54-2.36-1.64-3.54C18.26,43.71,33.18,50.1,43.19,43A41.28,41.28,0,0,0,47.9,38.07Z" transform="translate(0 -0.28)"/><text class="cls-2" transform="translate(62.44 31.4) scale(0.92 1)">STUDIO</text><text class="cls-3" transform="translate(22.47 31.4) scale(0.9 1)">JED </text></svg>